<svg width="40" height="30" viewBox="0 0 40 30" fill="none" xmlns="http://www.w3.org/2000/svg">
  <path d="M0.676926 30H39.3231C39.5026 30 39.6748 29.9274 39.8017 29.7981C39.9287 29.6688 40 29.4935 40 29.3106C40 29.1278 39.9287 28.9524 39.8017 28.8231C39.6748 28.6939 39.5026 28.6212 39.3231 28.6212H34.7179V14.997H36.3589C36.4478 14.997 36.5358 14.9792 36.6179 14.9446C36.7001 14.9099 36.7747 14.8592 36.8375 14.7951C36.9004 14.7311 36.9503 14.6551 36.9843 14.5715C37.0183 14.4878 37.0358 14.3982 37.0358 14.3077V11.0393C37.0358 11.0307 37.0313 11.0236 37.031 11.015C37.0281 10.9426 37.014 10.8711 36.989 10.8032C36.9831 10.7868 36.9789 10.7705 36.9718 10.7547C36.9674 10.7447 36.9659 10.7338 36.961 10.724L33.8265 4.51687V0.689383C33.8265 0.59885 33.809 0.509202 33.775 0.425559C33.741 0.341917 33.6911 0.265918 33.6282 0.201901C33.5654 0.137885 33.4907 0.0871056 33.4086 0.0524632C33.3265 0.0178208 33.2385 -6.51728e-06 33.1496 1.78727e-09H7.20717C7.11828 -6.51728e-06 7.03025 0.0178208 6.94812 0.0524632C6.86599 0.0871056 6.79136 0.137885 6.7285 0.201901C6.66564 0.265918 6.61578 0.341917 6.58176 0.425559C6.54775 0.509202 6.53024 0.59885 6.53025 0.689383V4.51687L3.39574 10.7239C3.39078 10.7338 3.38933 10.7446 3.38486 10.7546C3.37776 10.7705 3.37363 10.7868 3.36768 10.8032C3.34275 10.8711 3.32859 10.9426 3.32573 11.015C3.32544 11.0235 3.32091 11.0306 3.32091 11.0393V14.3076C3.3209 14.3982 3.33841 14.4878 3.37242 14.5715C3.40644 14.6551 3.4563 14.7311 3.51916 14.7951C3.58202 14.8591 3.65665 14.9099 3.73878 14.9445C3.82091 14.9792 3.90894 14.997 3.99783 14.997H5.63859V28.6212H0.676926C0.497394 28.6212 0.325215 28.6939 0.198267 28.8231C0.0713188 28.9524 0 29.1278 0 29.3106C0 29.4935 0.0713188 29.6688 0.198267 29.7981C0.325215 29.9274 0.497394 30 0.676926 30ZM14.1078 11.7287V13.6183H10.0682V11.7287H14.1078ZM19.5013 11.7287V13.6183H15.4617V11.7287H19.5013ZM24.895 11.7287V13.6183H20.8551V11.7287H24.895ZM30.2885 11.7287V13.6183H26.2489V11.7287H30.2885ZM22.2148 14.997H29.4862V23.8548H22.2148V14.997ZM17.7183 14.997V28.6212H10.8483V14.997H17.7183ZM33.364 28.6212H19.0721V14.997H20.861V24.5442C20.861 24.6347 20.8785 24.7243 20.9125 24.808C20.9465 24.8916 20.9964 24.9676 21.0592 25.0316C21.1221 25.0957 21.1967 25.1464 21.2788 25.1811C21.361 25.2157 21.449 25.2336 21.5379 25.2335H30.1631C30.252 25.2336 30.3401 25.2157 30.4222 25.1811C30.5043 25.1464 30.579 25.0957 30.6418 25.0316C30.7047 24.9676 30.7545 24.8916 30.7886 24.808C30.8226 24.7243 30.8401 24.6347 30.8401 24.5442V14.997H33.364V28.6212ZM35.6819 13.6183H31.6423V11.7287H35.6819V13.6183ZM7.8841 1.37877H32.4726V3.99465H7.8841V1.37877ZM7.62021 5.37341H32.7365L35.2496 10.3499H5.10708L7.62021 5.37341ZM4.67477 11.7287H8.71437V13.6183H4.67476L4.67477 11.7287ZM6.99245 14.997H9.49443V28.6212H6.99244L6.99245 14.997Z" fill="white" />
</svg>